<?xml version="1.0" encoding="utf-8" standalone="no"?>
<!DOCTYPE svg PUBLIC "-//W3C//DTD SVG 1.1//EN"
  "http://www.w3.org/Graphics/SVG/1.1/DTD/svg11.dtd">
<svg xmlns:xlink="http://www.w3.org/1999/xlink" width="720pt" height="360pt" viewBox="0 0 720 360" xmlns="http://www.w3.org/2000/svg" version="1.1">
 <metadata>
  <rdf:RDF xmlns:dc="http://purl.org/dc/elements/1.1/" xmlns:cc="http://creativecommons.org/ns#" xmlns:rdf="http://www.w3.org/1999/02/22-rdf-syntax-ns#">
   <cc:Work>
    <dc:type rdf:resource="http://purl.org/dc/dcmitype/StillImage"/>
    <dc:date>2025-11-07T13:31:07.108385</dc:date>
    <dc:format>image/svg+xml</dc:format>
    <dc:creator>
     <cc:Agent>
      <dc:title>Matplotlib v3.10.0, https://matplotlib.org/</dc:title>
     </cc:Agent>
    </dc:creator>
   </cc:Work>
  </rdf:RDF>
 </metadata>
 <defs>
  <style type="text/css">*{stroke-linejoin: round; stroke-linecap: butt}</style>
 </defs>
 <g id="figure_1">
  <g id="patch_1">
   <path d="M 0 360 
L 720 360 
L 720 0 
L 0 0 
z
" style="fill: #ffffff"/>
  </g>
  <g id="axes_1">
   <g id="patch_2">
    <path d="M 90 320.4 
L 648 320.4 
L 648 43.2 
L 90 43.2 
z
" style="fill: #ffffff"/>
   </g>
   <g id="patch_3">
    <path d="M 115.363636 320.4 
L 117.9 320.4 
L 117.9 320.079612 
L 115.363636 320.079612 
z
" clip-path="url(#pd09fef53b2)" style="fill: #0000ff; stroke: #000000; stroke-linejoin: miter"/>
   </g>
   <g id="patch_4">
    <path d="M 117.9 320.4 
L 120.436364 320.4 
L 120.436364 320.4 
L 117.9 320.4 
z
" clip-path="url(#pd09fef53b2)" style="fill: #0000ff; stroke: #000000; stroke-linejoin: miter"/>
   </g>
   <g id="patch_5">
    <path d="M 120.436364 320.4 
L 122.972727 320.4 
L 122.972727 320.4 
L 120.436364 320.4 
z
" clip-path="url(#pd09fef53b2)" style="fill: #0000ff; stroke: #000000; stroke-linejoin: miter"/>
   </g>
   <g id="patch_6">
    <path d="M 122.972727 320.4 
L 125.509091 320.4 
L 125.509091 320.4 
L 122.972727 320.4 
z
" clip-path="url(#pd09fef53b2)" style="fill: #0000ff; stroke: #000000; stroke-linejoin: miter"/>
   </g>
   <g id="patch_7">
    <path d="M 125.509091 320.4 
L 128.045455 320.4 
L 128.045455 320.4 
L 125.509091 320.4 
z
" clip-path="url(#pd09fef53b2)" style="fill: #0000ff; stroke: #000000; stroke-linejoin: miter"/>
   </g>
   <g id="patch_8">
    <path d="M 128.045455 320.4 
L 130.581818 320.4 
L 130.581818 320.4 
L 128.045455 320.4 
z
" clip-path="url(#pd09fef53b2)" style="fill: #0000ff; stroke: #000000; stroke-linejoin: miter"/>
   </g>
   <g id="patch_9">
    <path d="M 130.581818 320.4 
L 133.118182 320.4 
L 133.118182 320.4 
L 130.581818 320.4 
z
" clip-path="url(#pd09fef53b2)" style="fill: #0000ff; stroke: #000000; stroke-linejoin: miter"/>
   </g>
   <g id="patch_10">
    <path d="M 133.118182 320.4 
L 135.654545 320.4 
L 135.654545 320.4 
L 133.118182 320.4 
z
" clip-path="url(#pd09fef53b2)" style="fill: #0000ff; stroke: #000000; stroke-linejoin: miter"/>
   </g>
   <g id="patch_11">
    <path d="M 135.654545 320.4 
L 138.190909 320.4 
L 138.190909 320.4 
L 135.654545 320.4 
z
" clip-path="url(#pd09fef53b2)" style="fill: #0000ff; stroke: #000000; stroke-linejoin: miter"/>
   </g>
   <g id="patch_12">
    <path d="M 138.190909 320.4 
L 140.727273 320.4 
L 140.727273 320.4 
L 138.190909 320.4 
z
" clip-path="url(#pd09fef53b2)" style="fill: #0000ff; stroke: #000000; stroke-linejoin: miter"/>
   </g>
   <g id="patch_13">
    <path d="M 140.727273 320.4 
L 143.263636 320.4 
L 143.263636 320.4 
L 140.727273 320.4 
z
" clip-path="url(#pd09fef53b2)" style="fill: #0000ff; stroke: #000000; stroke-linejoin: miter"/>
   </g>
   <g id="patch_14">
    <path d="M 143.263636 320.4 
L 145.8 320.4 
L 145.8 320.4 
L 143.263636 320.4 
z
" clip-path="url(#pd09fef53b2)" style="fill: #0000ff; stroke: #000000; stroke-linejoin: miter"/>
   </g>
   <g id="patch_15">
    <path d="M 145.8 320.4 
L 148.336364 320.4 
L 148.336364 320.4 
L 145.8 320.4 
z
" clip-path="url(#pd09fef53b2)" style="fill: #0000ff; stroke: #000000; stroke-linejoin: miter"/>
   </g>
   <g id="patch_16">
    <path d="M 148.336364 320.4 
L 150.872727 320.4 
L 150.872727 320.4 
L 148.336364 320.4 
z
" clip-path="url(#pd09fef53b2)" style="fill: #0000ff; stroke: #000000; stroke-linejoin: miter"/>
   </g>
   <g id="patch_17">
    <path d="M 150.872727 320.4 
L 153.409091 320.4 
L 153.409091 320.079612 
L 150.872727 320.079612 
z
" clip-path="url(#pd09fef53b2)" style="fill: #0000ff; stroke: #000000; stroke-linejoin: miter"/>
   </g>
   <g id="patch_18">
    <path d="M 153.409091 320.4 
L 155.945455 320.4 
L 155.945455 320.4 
L 153.409091 320.4 
z
" clip-path="url(#pd09fef53b2)" style="fill: #0000ff; stroke: #000000; stroke-linejoin: miter"/>
   </g>
   <g id="patch_19">
    <path d="M 155.945455 320.4 
L 158.481818 320.4 
L 158.481818 320.4 
L 155.945455 320.4 
z
" clip-path="url(#pd09fef53b2)" style="fill: #0000ff; stroke: #000000; stroke-linejoin: miter"/>
   </g>
   <g id="patch_20">
    <path d="M 158.481818 320.4 
L 161.018182 320.4 
L 161.018182 320.4 
L 158.481818 320.4 
z
" clip-path="url(#pd09fef53b2)" style="fill: #0000ff; stroke: #000000; stroke-linejoin: miter"/>
   </g>
   <g id="patch_21">
    <path d="M 161.018182 320.4 
L 163.554545 320.4 
L 163.554545 320.079612 
L 161.018182 320.079612 
z
" clip-path="url(#pd09fef53b2)" style="fill: #0000ff; stroke: #000000; stroke-linejoin: miter"/>
   </g>
   <g id="patch_22">
    <path d="M 163.554545 320.4 
L 166.090909 320.4 
L 166.090909 320.4 
L 163.554545 320.4 
z
" clip-path="url(#pd09fef53b2)" style="fill: #0000ff; stroke: #000000; stroke-linejoin: miter"/>
   </g>
   <g id="patch_23">
    <path d="M 166.090909 320.4 
L 168.627273 320.4 
L 168.627273 320.4 
L 166.090909 320.4 
z
" clip-path="url(#pd09fef53b2)" style="fill: #0000ff; stroke: #000000; stroke-linejoin: miter"/>
   </g>
   <g id="patch_24">
    <path d="M 168.627273 320.4 
L 171.163636 320.4 
L 171.163636 320.4 
L 168.627273 320.4 
z
" clip-path="url(#pd09fef53b2)" style="fill: #0000ff; stroke: #000000; stroke-linejoin: miter"/>
   </g>
   <g id="patch_25">
    <path d="M 171.163636 320.4 
L 173.7 320.4 
L 173.7 320.4 
L 171.163636 320.4 
z
" clip-path="url(#pd09fef53b2)" style="fill: #0000ff; stroke: #000000; stroke-linejoin: miter"/>
   </g>
   <g id="patch_26">
    <path d="M 173.7 320.4 
L 176.236364 320.4 
L 176.236364 320.4 
L 173.7 320.4 
z
" clip-path="url(#pd09fef53b2)" style="fill: #0000ff; stroke: #000000; stroke-linejoin: miter"/>
   </g>
   <g id="patch_27">
    <path d="M 176.236364 320.4 
L 178.772727 320.4 
L 178.772727 320.4 
L 176.236364 320.4 
z
" clip-path="url(#pd09fef53b2)" style="fill: #0000ff; stroke: #000000; stroke-linejoin: miter"/>
   </g>
   <g id="patch_28">
    <path d="M 178.772727 320.4 
L 181.309091 320.4 
L 181.309091 320.079612 
L 178.772727 320.079612 
z
" clip-path="url(#pd09fef53b2)" style="fill: #0000ff; stroke: #000000; stroke-linejoin: miter"/>
   </g>
   <g id="patch_29">
    <path d="M 181.309091 320.4 
L 183.845455 320.4 
L 183.845455 320.4 
L 181.309091 320.4 
z
" clip-path="url(#pd09fef53b2)" style="fill: #0000ff; stroke: #000000; stroke-linejoin: miter"/>
   </g>
   <g id="patch_30">
    <path d="M 183.845455 320.4 
L 186.381818 320.4 
L 186.381818 319.759223 
L 183.845455 319.759223 
z
" clip-path="url(#pd09fef53b2)" style="fill: #0000ff; stroke: #000000; stroke-linejoin: miter"/>
   </g>
   <g id="patch_31">
    <path d="M 186.381818 320.4 
L 188.918182 320.4 
L 188.918182 320.4 
L 186.381818 320.4 
z
" clip-path="url(#pd09fef53b2)" style="fill: #0000ff; stroke: #000000; stroke-linejoin: miter"/>
   </g>
   <g id="patch_32">
    <path d="M 188.918182 320.4 
L 191.454545 320.4 
L 191.454545 320.4 
L 188.918182 320.4 
z
" clip-path="url(#pd09fef53b2)" style="fill: #0000ff; stroke: #000000; stroke-linejoin: miter"/>
   </g>
   <g id="patch_33">
    <path d="M 191.454545 320.4 
L 193.990909 320.4 
L 193.990909 319.759223 
L 191.454545 319.759223 
z
" clip-path="url(#pd09fef53b2)" style="fill: #0000ff; stroke: #000000; stroke-linejoin: miter"/>
   </g>
   <g id="patch_34">
    <path d="M 193.990909 320.4 
L 196.527273 320.4 
L 196.527273 320.079612 
L 193.990909 320.079612 
z
" clip-path="url(#pd09fef53b2)" style="fill: #0000ff; stroke: #000000; stroke-linejoin: miter"/>
   </g>
   <g id="patch_35">
    <path d="M 196.527273 320.4 
L 199.063636 320.4 
L 199.063636 320.4 
L 196.527273 320.4 
z
" clip-path="url(#pd09fef53b2)" style="fill: #0000ff; stroke: #000000; stroke-linejoin: miter"/>
   </g>
   <g id="patch_36">
    <path d="M 199.063636 320.4 
L 201.6 320.4 
L 201.6 320.079612 
L 199.063636 320.079612 
z
" clip-path="url(#pd09fef53b2)" style="fill: #0000ff; stroke: #000000; stroke-linejoin: miter"/>
   </g>
   <g id="patch_37">
    <path d="M 201.6 320.4 
L 204.136364 320.4 
L 204.136364 320.4 
L 201.6 320.4 
z
" clip-path="url(#pd09fef53b2)" style="fill: #0000ff; stroke: #000000; stroke-linejoin: miter"/>
   </g>
   <g id="patch_38">
    <path d="M 204.136364 320.4 
L 206.672727 320.4 
L 206.672727 320.079612 
L 204.136364 320.079612 
z
" clip-path="url(#pd09fef53b2)" style="fill: #0000ff; stroke: #000000; stroke-linejoin: miter"/>
   </g>
   <g id="patch_39">
    <path d="M 206.672727 320.4 
L 209.209091 320.4 
L 209.209091 320.079612 
L 206.672727 320.079612 
z
" clip-path="url(#pd09fef53b2)" style="fill: #0000ff; stroke: #000000; stroke-linejoin: miter"/>
   </g>
   <g id="patch_40">
    <path d="M 209.209091 320.4 
L 211.745455 320.4 
L 211.745455 320.4 
L 209.209091 320.4 
z
" clip-path="url(#pd09fef53b2)" style="fill: #0000ff; stroke: #000000; stroke-linejoin: miter"/>
   </g>
   <g id="patch_41">
    <path d="M 211.745455 320.4 
L 214.281818 320.4 
L 214.281818 320.4 
L 211.745455 320.4 
z
" clip-path="url(#pd09fef53b2)" style="fill: #0000ff; stroke: #000000; stroke-linejoin: miter"/>
   </g>
   <g id="patch_42">
    <path d="M 214.281818 320.4 
L 216.818182 320.4 
L 216.818182 320.4 
L 214.281818 320.4 
z
" clip-path="url(#pd09fef53b2)" style="fill: #0000ff; stroke: #000000; stroke-linejoin: miter"/>
   </g>
   <g id="patch_43">
    <path d="M 216.818182 320.4 
L 219.354545 320.4 
L 219.354545 320.079612 
L 216.818182 320.079612 
z
" clip-path="url(#pd09fef53b2)" style="fill: #0000ff; stroke: #000000; stroke-linejoin: miter"/>
   </g>
   <g id="patch_44">
    <path d="M 219.354545 320.4 
L 221.890909 320.4 
L 221.890909 320.4 
L 219.354545 320.4 
z
" clip-path="url(#pd09fef53b2)" style="fill: #0000ff; stroke: #000000; stroke-linejoin: miter"/>
   </g>
   <g id="patch_45">
    <path d="M 221.890909 320.4 
L 224.427273 320.4 
L 224.427273 320.079612 
L 221.890909 320.079612 
z
" clip-path="url(#pd09fef53b2)" style="fill: #0000ff; stroke: #000000; stroke-linejoin: miter"/>
   </g>
   <g id="patch_46">
    <path d="M 224.427273 320.4 
L 226.963636 320.4 
L 226.963636 320.4 
L 224.427273 320.4 
z
" clip-path="url(#pd09fef53b2)" style="fill: #0000ff; stroke: #000000; stroke-linejoin: miter"/>
   </g>
   <g id="patch_47">
    <path d="M 226.963636 320.4 
L 229.5 320.4 
L 229.5 320.4 
L 226.963636 320.4 
z
" clip-path="url(#pd09fef53b2)" style="fill: #0000ff; stroke: #000000; stroke-linejoin: miter"/>
   </g>
   <g id="patch_48">
    <path d="M 229.5 320.4 
L 232.036364 320.4 
L 232.036364 320.079612 
L 229.5 320.079612 
z
" clip-path="url(#pd09fef53b2)" style="fill: #0000ff; stroke: #000000; stroke-linejoin: miter"/>
   </g>
   <g id="patch_49">
    <path d="M 232.036364 320.4 
L 234.572727 320.4 
L 234.572727 320.4 
L 232.036364 320.4 
z
" clip-path="url(#pd09fef53b2)" style="fill: #0000ff; stroke: #000000; stroke-linejoin: miter"/>
   </g>
   <g id="patch_50">
    <path d="M 234.572727 320.4 
L 237.109091 320.4 
L 237.109091 320.4 
L 234.572727 320.4 
z
" clip-path="url(#pd09fef53b2)" style="fill: #0000ff; stroke: #000000; stroke-linejoin: miter"/>
   </g>
   <g id="patch_51">
    <path d="M 237.109091 320.4 
L 239.645455 320.4 
L 239.645455 320.4 
L 237.109091 320.4 
z
" clip-path="url(#pd09fef53b2)" style="fill: #0000ff; stroke: #000000; stroke-linejoin: miter"/>
   </g>
   <g id="patch_52">
    <path d="M 239.645455 320.4 
L 242.181818 320.4 
L 242.181818 320.079612 
L 239.645455 320.079612 
z
" clip-path="url(#pd09fef53b2)" style="fill: #0000ff; stroke: #000000; stroke-linejoin: miter"/>
   </g>
   <g id="patch_53">
    <path d="M 242.181818 320.4 
L 244.718182 320.4 
L 244.718182 320.4 
L 242.181818 320.4 
z
" clip-path="url(#pd09fef53b2)" style="fill: #0000ff; stroke: #000000; stroke-linejoin: miter"/>
   </g>
   <g id="patch_54">
    <path d="M 244.718182 320.4 
L 247.254545 320.4 
L 247.254545 319.759223 
L 244.718182 319.759223 
z
" clip-path="url(#pd09fef53b2)" style="fill: #0000ff; stroke: #000000; stroke-linejoin: miter"/>
   </g>
   <g id="patch_55">
    <path d="M 247.254545 320.4 
L 249.790909 320.4 
L 249.790909 320.4 
L 247.254545 320.4 
z
" clip-path="url(#pd09fef53b2)" style="fill: #0000ff; stroke: #000000; stroke-linejoin: miter"/>
   </g>
   <g id="patch_56">
    <path d="M 249.790909 320.4 
L 252.327273 320.4 
L 252.327273 320.4 
L 249.790909 320.4 
z
" clip-path="url(#pd09fef53b2)" style="fill: #0000ff; stroke: #000000; stroke-linejoin: miter"/>
   </g>
   <g id="patch_57">
    <path d="M 252.327273 320.4 
L 254.863636 320.4 
L 254.863636 319.759223 
L 252.327273 319.759223 
z
" clip-path="url(#pd09fef53b2)" style="fill: #0000ff; stroke: #000000; stroke-linejoin: miter"/>
   </g>
   <g id="patch_58">
    <path d="M 254.863636 320.4 
L 257.4 320.4 
L 257.4 320.079612 
L 254.863636 320.079612 
z
" clip-path="url(#pd09fef53b2)" style="fill: #0000ff; stroke: #000000; stroke-linejoin: miter"/>
   </g>
   <g id="patch_59">
    <path d="M 257.4 320.4 
L 259.936364 320.4 
L 259.936364 320.4 
L 257.4 320.4 
z
" clip-path="url(#pd09fef53b2)" style="fill: #0000ff; stroke: #000000; stroke-linejoin: miter"/>
   </g>
   <g id="patch_60">
    <path d="M 259.936364 320.4 
L 262.472727 320.4 
L 262.472727 319.438835 
L 259.936364 319.438835 
z
" clip-path="url(#pd09fef53b2)" style="fill: #0000ff; stroke: #000000; stroke-linejoin: miter"/>
   </g>
   <g id="patch_61">
    <path d="M 262.472727 320.4 
L 265.009091 320.4 
L 265.009091 320.4 
L 262.472727 320.4 
z
" clip-path="url(#pd09fef53b2)" style="fill: #0000ff; stroke: #000000; stroke-linejoin: miter"/>
   </g>
   <g id="patch_62">
    <path d="M 265.009091 320.4 
L 267.545455 320.4 
L 267.545455 320.079612 
L 265.009091 320.079612 
z
" clip-path="url(#pd09fef53b2)" style="fill: #0000ff; stroke: #000000; stroke-linejoin: miter"/>
   </g>
   <g id="patch_63">
    <path d="M 267.545455 320.4 
L 270.081818 320.4 
L 270.081818 320.079612 
L 267.545455 320.079612 
z
" clip-path="url(#pd09fef53b2)" style="fill: #0000ff; stroke: #000000; stroke-linejoin: miter"/>
   </g>
   <g id="patch_64">
    <path d="M 270.081818 320.4 
L 272.618182 320.4 
L 272.618182 320.4 
L 270.081818 320.4 
z
" clip-path="url(#pd09fef53b2)" style="fill: #0000ff; stroke: #000000; stroke-linejoin: miter"/>
   </g>
   <g id="patch_65">
    <path d="M 272.618182 320.4 
L 275.154545 320.4 
L 275.154545 320.4 
L 272.618182 320.4 
z
" clip-path="url(#pd09fef53b2)" style="fill: #0000ff; stroke: #000000; stroke-linejoin: miter"/>
   </g>
   <g id="patch_66">
    <path d="M 275.154545 320.4 
L 277.690909 320.4 
L 277.690909 320.4 
L 275.154545 320.4 
z
" clip-path="url(#pd09fef53b2)" style="fill: #0000ff; stroke: #000000; stroke-linejoin: miter"/>
   </g>
   <g id="patch_67">
    <path d="M 277.690909 320.4 
L 280.227273 320.4 
L 280.227273 320.4 
L 277.690909 320.4 
z
" clip-path="url(#pd09fef53b2)" style="fill: #0000ff; stroke: #000000; stroke-linejoin: miter"/>
   </g>
   <g id="patch_68">
    <path d="M 280.227273 320.4 
L 282.763636 320.4 
L 282.763636 319.759223 
L 280.227273 319.759223 
z
" clip-path="url(#pd09fef53b2)" style="fill: #0000ff; stroke: #000000; stroke-linejoin: miter"/>
   </g>
   <g id="patch_69">
    <path d="M 282.763636 320.4 
L 285.3 320.4 
L 285.3 320.079612 
L 282.763636 320.079612 
z
" clip-path="url(#pd09fef53b2)" style="fill: #0000ff; stroke: #000000; stroke-linejoin: miter"/>
   </g>
   <g id="patch_70">
    <path d="M 285.3 320.4 
L 287.836364 320.4 
L 287.836364 320.079612 
L 285.3 320.079612 
z
" clip-path="url(#pd09fef53b2)" style="fill: #0000ff; stroke: #000000; stroke-linejoin: miter"/>
   </g>
   <g id="patch_71">
    <path d="M 287.836364 320.4 
L 290.372727 320.4 
L 290.372727 320.079612 
L 287.836364 320.079612 
z
" clip-path="url(#pd09fef53b2)" style="fill: #0000ff; stroke: #000000; stroke-linejoin: miter"/>
   </g>
   <g id="patch_72">
    <path d="M 290.372727 320.4 
L 292.909091 320.4 
L 292.909091 319.438835 
L 290.372727 319.438835 
z
" clip-path="url(#pd09fef53b2)" style="fill: #0000ff; stroke: #000000; stroke-linejoin: miter"/>
   </g>
   <g id="patch_73">
    <path d="M 292.909091 320.4 
L 295.445455 320.4 
L 295.445455 320.4 
L 292.909091 320.4 
z
" clip-path="url(#pd09fef53b2)" style="fill: #0000ff; stroke: #000000; stroke-linejoin: miter"/>
   </g>
   <g id="patch_74">
    <path d="M 295.445455 320.4 
L 297.981818 320.4 
L 297.981818 320.079612 
L 295.445455 320.079612 
z
" clip-path="url(#pd09fef53b2)" style="fill: #0000ff; stroke: #000000; stroke-linejoin: miter"/>
   </g>
   <g id="patch_75">
    <path d="M 297.981818 320.4 
L 300.518182 320.4 
L 300.518182 320.4 
L 297.981818 320.4 
z
" clip-path="url(#pd09fef53b2)" style="fill: #0000ff; stroke: #000000; stroke-linejoin: miter"/>
   </g>
   <g id="patch_76">
    <path d="M 300.518182 320.4 
L 303.054545 320.4 
L 303.054545 319.759223 
L 300.518182 319.759223 
z
" clip-path="url(#pd09fef53b2)" style="fill: #0000ff; stroke: #000000; stroke-linejoin: miter"/>
   </g>
   <g id="patch_77">
    <path d="M 303.054545 320.4 
L 305.590909 320.4 
L 305.590909 320.4 
L 303.054545 320.4 
z
" clip-path="url(#pd09fef53b2)" style="fill: #0000ff; stroke: #000000; stroke-linejoin: miter"/>
   </g>
   <g id="patch_78">
    <path d="M 305.590909 320.4 
L 308.127273 320.4 
L 308.127273 319.759223 
L 305.590909 319.759223 
z
" clip-path="url(#pd09fef53b2)" style="fill: #0000ff; stroke: #000000; stroke-linejoin: miter"/>
   </g>
   <g id="patch_79">
    <path d="M 308.127273 320.4 
L 310.663636 320.4 
L 310.663636 319.759223 
L 308.127273 319.759223 
z
" clip-path="url(#pd09fef53b2)" style="fill: #0000ff; stroke: #000000; stroke-linejoin: miter"/>
   </g>
   <g id="patch_80">
    <path d="M 310.663636 320.4 
L 313.2 320.4 
L 313.2 320.079612 
L 310.663636 320.079612 
z
" clip-path="url(#pd09fef53b2)" style="fill: #0000ff; stroke: #000000; stroke-linejoin: miter"/>
   </g>
   <g id="patch_81">
    <path d="M 313.2 320.4 
L 315.736364 320.4 
L 315.736364 319.759223 
L 313.2 319.759223 
z
" clip-path="url(#pd09fef53b2)" style="fill: #0000ff; stroke: #000000; stroke-linejoin: miter"/>
   </g>
   <g id="patch_82">
    <path d="M 315.736364 320.4 
L 318.272727 320.4 
L 318.272727 320.079612 
L 315.736364 320.079612 
z
" clip-path="url(#pd09fef53b2)" style="fill: #0000ff; stroke: #000000; stroke-linejoin: miter"/>
   </g>
   <g id="patch_83">
    <path d="M 318.272727 320.4 
L 320.809091 320.4 
L 320.809091 320.079612 
L 318.272727 320.079612 
z
" clip-path="url(#pd09fef53b2)" style="fill: #0000ff; stroke: #000000; stroke-linejoin: miter"/>
   </g>
   <g id="patch_84">
    <path d="M 320.809091 320.4 
L 323.345455 320.4 
L 323.345455 319.759223 
L 320.809091 319.759223 
z
" clip-path="url(#pd09fef53b2)" style="fill: #0000ff; stroke: #000000; stroke-linejoin: miter"/>
   </g>
   <g id="patch_85">
    <path d="M 323.345455 320.4 
L 325.881818 320.4 
L 325.881818 319.118447 
L 323.345455 319.118447 
z
" clip-path="url(#pd09fef53b2)" style="fill: #0000ff; stroke: #000000; stroke-linejoin: miter"/>
   </g>
   <g id="patch_86">
    <path d="M 325.881818 320.4 
L 328.418182 320.4 
L 328.418182 318.798058 
L 325.881818 318.798058 
z
" clip-path="url(#pd09fef53b2)" style="fill: #0000ff; stroke: #000000; stroke-linejoin: miter"/>
   </g>
   <g id="patch_87">
    <path d="M 328.418182 320.4 
L 330.954545 320.4 
L 330.954545 319.438835 
L 328.418182 319.438835 
z
" clip-path="url(#pd09fef53b2)" style="fill: #0000ff; stroke: #000000; stroke-linejoin: miter"/>
   </g>
   <g id="patch_88">
    <path d="M 330.954545 320.4 
L 333.490909 320.4 
L 333.490909 319.759223 
L 330.954545 319.759223 
z
" clip-path="url(#pd09fef53b2)" style="fill: #0000ff; stroke: #000000; stroke-linejoin: miter"/>
   </g>
   <g id="patch_89">
    <path d="M 333.490909 320.4 
L 336.027273 320.4 
L 336.027273 319.759223 
L 333.490909 319.759223 
z
" clip-path="url(#pd09fef53b2)" style="fill: #0000ff; stroke: #000000; stroke-linejoin: miter"/>
   </g>
   <g id="patch_90">
    <path d="M 336.027273 320.4 
L 338.563636 320.4 
L 338.563636 318.157282 
L 336.027273 318.157282 
z
" clip-path="url(#pd09fef53b2)" style="fill: #0000ff; stroke: #000000; stroke-linejoin: miter"/>
   </g>
   <g id="patch_91">
    <path d="M 338.563636 320.4 
L 341.1 320.4 
L 341.1 319.118447 
L 338.563636 319.118447 
z
" clip-path="url(#pd09fef53b2)" style="fill: #0000ff; stroke: #000000; stroke-linejoin: miter"/>
   </g>
   <g id="patch_92">
    <path d="M 341.1 320.4 
L 343.636364 320.4 
L 343.636364 318.798058 
L 341.1 318.798058 
z
" clip-path="url(#pd09fef53b2)" style="fill: #0000ff; stroke: #000000; stroke-linejoin: miter"/>
   </g>
   <g id="patch_93">
    <path d="M 343.636364 320.4 
L 346.172727 320.4 
L 346.172727 318.798058 
L 343.636364 318.798058 
z
" clip-path="url(#pd09fef53b2)" style="fill: #0000ff; stroke: #000000; stroke-linejoin: miter"/>
   </g>
   <g id="patch_94">
    <path d="M 346.172727 320.4 
L 348.709091 320.4 
L 348.709091 320.079612 
L 346.172727 320.079612 
z
" clip-path="url(#pd09fef53b2)" style="fill: #0000ff; stroke: #000000; stroke-linejoin: miter"/>
   </g>
   <g id="patch_95">
    <path d="M 348.709091 320.4 
L 351.245455 320.4 
L 351.245455 319.759223 
L 348.709091 319.759223 
z
" clip-path="url(#pd09fef53b2)" style="fill: #0000ff; stroke: #000000; stroke-linejoin: miter"/>
   </g>
   <g id="patch_96">
    <path d="M 351.245455 320.4 
L 353.781818 320.4 
L 353.781818 319.438835 
L 351.245455 319.438835 
z
" clip-path="url(#pd09fef53b2)" style="fill: #0000ff; stroke: #000000; stroke-linejoin: miter"/>
   </g>
   <g id="patch_97">
    <path d="M 353.781818 320.4 
L 356.318182 320.4 
L 356.318182 320.4 
L 353.781818 320.4 
z
" clip-path="url(#pd09fef53b2)" style="fill: #0000ff; stroke: #000000; stroke-linejoin: miter"/>
   </g>
   <g id="patch_98">
    <path d="M 356.318182 320.4 
L 358.854545 320.4 
L 358.854545 319.118447 
L 356.318182 319.118447 
z
" clip-path="url(#pd09fef53b2)" style="fill: #0000ff; stroke: #000000; stroke-linejoin: miter"/>
   </g>
   <g id="patch_99">
    <path d="M 358.854545 320.4 
L 361.390909 320.4 
L 361.390909 319.438835 
L 358.854545 319.438835 
z
" clip-path="url(#pd09fef53b2)" style="fill: #0000ff; stroke: #000000; stroke-linejoin: miter"/>
   </g>
   <g id="patch_100">
    <path d="M 361.390909 320.4 
L 363.927273 320.4 
L 363.927273 318.798058 
L 361.390909 318.798058 
z
" clip-path="url(#pd09fef53b2)" style="fill: #0000ff; stroke: #000000; stroke-linejoin: miter"/>
   </g>
   <g id="patch_101">
    <path d="M 363.927273 320.4 
L 366.463636 320.4 
L 366.463636 318.157282 
L 363.927273 318.157282 
z
" clip-path="url(#pd09fef53b2)" style="fill: #0000ff; stroke: #000000; stroke-linejoin: miter"/>
   </g>
   <g id="patch_102">
    <path d="M 366.463636 320.4 
L 369 320.4 
L 369 319.118447 
L 366.463636 319.118447 
z
" clip-path="url(#pd09fef53b2)" style="fill: #0000ff; stroke: #000000; stroke-linejoin: miter"/>
   </g>
   <g id="patch_103">
    <path d="M 369 320.4 
L 371.536364 320.4 
L 371.536364 319.438835 
L 369 319.438835 
z
" clip-path="url(#pd09fef53b2)" style="fill: #0000ff; stroke: #000000; stroke-linejoin: miter"/>
   </g>
   <g id="patch_104">
    <path d="M 371.536364 320.4 
L 374.072727 320.4 
L 374.072727 317.836893 
L 371.536364 317.836893 
z
" clip-path="url(#pd09fef53b2)" style="fill: #0000ff; stroke: #000000; stroke-linejoin: miter"/>
   </g>
   <g id="patch_105">
    <path d="M 374.072727 320.4 
L 376.609091 320.4 
L 376.609091 319.118447 
L 374.072727 319.118447 
z
" clip-path="url(#pd09fef53b2)" style="fill: #0000ff; stroke: #000000; stroke-linejoin: miter"/>
   </g>
   <g id="patch_106">
    <path d="M 376.609091 320.4 
L 379.145455 320.4 
L 379.145455 317.836893 
L 376.609091 317.836893 
z
" clip-path="url(#pd09fef53b2)" style="fill: #0000ff; stroke: #000000; stroke-linejoin: miter"/>
   </g>
   <g id="patch_107">
    <path d="M 379.145455 320.4 
L 381.681818 320.4 
L 381.681818 318.798058 
L 379.145455 318.798058 
z
" clip-path="url(#pd09fef53b2)" style="fill: #0000ff; stroke: #000000; stroke-linejoin: miter"/>
   </g>
   <g id="patch_108">
    <path d="M 381.681818 320.4 
L 384.218182 320.4 
L 384.218182 317.836893 
L 381.681818 317.836893 
z
" clip-path="url(#pd09fef53b2)" style="fill: #0000ff; stroke: #000000; stroke-linejoin: miter"/>
   </g>
   <g id="patch_109">
    <path d="M 384.218182 320.4 
L 386.754545 320.4 
L 386.754545 316.234951 
L 384.218182 316.234951 
z
" clip-path="url(#pd09fef53b2)" style="fill: #0000ff; stroke: #000000; stroke-linejoin: miter"/>
   </g>
   <g id="patch_110">
    <path d="M 386.754545 320.4 
L 389.290909 320.4 
L 389.290909 317.836893 
L 386.754545 317.836893 
z
" clip-path="url(#pd09fef53b2)" style="fill: #0000ff; stroke: #000000; stroke-linejoin: miter"/>
   </g>
   <g id="patch_111">
    <path d="M 389.290909 320.4 
L 391.827273 320.4 
L 391.827273 317.196117 
L 389.290909 317.196117 
z
" clip-path="url(#pd09fef53b2)" style="fill: #0000ff; stroke: #000000; stroke-linejoin: miter"/>
   </g>
   <g id="patch_112">
    <path d="M 391.827273 320.4 
L 394.363636 320.4 
L 394.363636 318.798058 
L 391.827273 318.798058 
z
" clip-path="url(#pd09fef53b2)" style="fill: #0000ff; stroke: #000000; stroke-linejoin: miter"/>
   </g>
   <g id="patch_113">
    <path d="M 394.363636 320.4 
L 396.9 320.4 
L 396.9 317.196117 
L 394.363636 317.196117 
z
" clip-path="url(#pd09fef53b2)" style="fill: #0000ff; stroke: #000000; stroke-linejoin: miter"/>
   </g>
   <g id="patch_114">
    <path d="M 396.9 320.4 
L 399.436364 320.4 
L 399.436364 315.914563 
L 396.9 315.914563 
z
" clip-path="url(#pd09fef53b2)" style="fill: #0000ff; stroke: #000000; stroke-linejoin: miter"/>
   </g>
   <g id="patch_115">
    <path d="M 399.436364 320.4 
L 401.972727 320.4 
L 401.972727 313.351456 
L 399.436364 313.351456 
z
" clip-path="url(#pd09fef53b2)" style="fill: #0000ff; stroke: #000000; stroke-linejoin: miter"/>
   </g>
   <g id="patch_116">
    <path d="M 401.972727 320.4 
L 404.509091 320.4 
L 404.509091 314.312621 
L 401.972727 314.312621 
z
" clip-path="url(#pd09fef53b2)" style="fill: #0000ff; stroke: #000000; stroke-linejoin: miter"/>
   </g>
   <g id="patch_117">
    <path d="M 404.509091 320.4 
L 407.045455 320.4 
L 407.045455 313.992233 
L 404.509091 313.992233 
z
" clip-path="url(#pd09fef53b2)" style="fill: #0000ff; stroke: #000000; stroke-linejoin: miter"/>
   </g>
   <g id="patch_118">
    <path d="M 407.045455 320.4 
L 409.581818 320.4 
L 409.581818 314.63301 
L 407.045455 314.63301 
z
" clip-path="url(#pd09fef53b2)" style="fill: #0000ff; stroke: #000000; stroke-linejoin: miter"/>
   </g>
   <g id="patch_119">
    <path d="M 409.581818 320.4 
L 412.118182 320.4 
L 412.118182 312.71068 
L 409.581818 312.71068 
z
" clip-path="url(#pd09fef53b2)" style="fill: #0000ff; stroke: #000000; stroke-linejoin: miter"/>
   </g>
   <g id="patch_120">
    <path d="M 412.118182 320.4 
L 414.654545 320.4 
L 414.654545 312.069903 
L 412.118182 312.069903 
z
" clip-path="url(#pd09fef53b2)" style="fill: #0000ff; stroke: #000000; stroke-linejoin: miter"/>
   </g>
   <g id="patch_121">
    <path d="M 414.654545 320.4 
L 417.190909 320.4 
L 417.190909 312.390291 
L 414.654545 312.390291 
z
" clip-path="url(#pd09fef53b2)" style="fill: #0000ff; stroke: #000000; stroke-linejoin: miter"/>
   </g>
   <g id="patch_122">
    <path d="M 417.190909 320.4 
L 419.727273 320.4 
L 419.727273 308.866019 
L 417.190909 308.866019 
z
" clip-path="url(#pd09fef53b2)" style="fill: #0000ff; stroke: #000000; stroke-linejoin: miter"/>
   </g>
   <g id="patch_123">
    <path d="M 419.727273 320.4 
L 422.263636 320.4 
L 422.263636 305.341748 
L 419.727273 305.341748 
z
" clip-path="url(#pd09fef53b2)" style="fill: #0000ff; stroke: #000000; stroke-linejoin: miter"/>
   </g>
   <g id="patch_124">
    <path d="M 422.263636 320.4 
L 424.8 320.4 
L 424.8 305.662136 
L 422.263636 305.662136 
z
" clip-path="url(#pd09fef53b2)" style="fill: #0000ff; stroke: #000000; stroke-linejoin: miter"/>
   </g>
   <g id="patch_125">
    <path d="M 424.8 320.4 
L 427.336364 320.4 
L 427.336364 304.700971 
L 424.8 304.700971 
z
" clip-path="url(#pd09fef53b2)" style="fill: #0000ff; stroke: #000000; stroke-linejoin: miter"/>
   </g>
   <g id="patch_126">
    <path d="M 427.336364 320.4 
L 429.872727 320.4 
L 429.872727 298.613592 
L 427.336364 298.613592 
z
" clip-path="url(#pd09fef53b2)" style="fill: #0000ff; stroke: #000000; stroke-linejoin: miter"/>
   </g>
   <g id="patch_127">
    <path d="M 429.872727 320.4 
L 432.409091 320.4 
L 432.409091 294.128155 
L 429.872727 294.128155 
z
" clip-path="url(#pd09fef53b2)" style="fill: #0000ff; stroke: #000000; stroke-linejoin: miter"/>
   </g>
   <g id="patch_128">
    <path d="M 432.409091 320.4 
L 434.945455 320.4 
L 434.945455 288.040777 
L 432.409091 288.040777 
z
" clip-path="url(#pd09fef53b2)" style="fill: #0000ff; stroke: #000000; stroke-linejoin: miter"/>
   </g>
   <g id="patch_129">
    <path d="M 434.945455 320.4 
L 437.481818 320.4 
L 437.481818 283.234951 
L 434.945455 283.234951 
z
" clip-path="url(#pd09fef53b2)" style="fill: #0000ff; stroke: #000000; stroke-linejoin: miter"/>
   </g>
   <g id="patch_130">
    <path d="M 437.481818 320.4 
L 440.018182 320.4 
L 440.018182 262.08932 
L 437.481818 262.08932 
z
" clip-path="url(#pd09fef53b2)" style="fill: #0000ff; stroke: #000000; stroke-linejoin: miter"/>
   </g>
   <g id="patch_131">
    <path d="M 440.018182 320.4 
L 442.554545 320.4 
L 442.554545 263.050485 
L 440.018182 263.050485 
z
" clip-path="url(#pd09fef53b2)" style="fill: #0000ff; stroke: #000000; stroke-linejoin: miter"/>
   </g>
   <g id="patch_132">
    <path d="M 442.554545 320.4 
L 445.090909 320.4 
L 445.090909 253.759223 
L 442.554545 253.759223 
z
" clip-path="url(#pd09fef53b2)" style="fill: #0000ff; stroke: #000000; stroke-linejoin: miter"/>
   </g>
   <g id="patch_133">
    <path d="M 445.090909 320.4 
L 447.627273 320.4 
L 447.627273 233.574757 
L 445.090909 233.574757 
z
" clip-path="url(#pd09fef53b2)" style="fill: #0000ff; stroke: #000000; stroke-linejoin: miter"/>
   </g>
   <g id="patch_134">
    <path d="M 447.627273 320.4 
L 450.163636 320.4 
L 450.163636 217.875728 
L 447.627273 217.875728 
z
" clip-path="url(#pd09fef53b2)" style="fill: #0000ff; stroke: #000000; stroke-linejoin: miter"/>
   </g>
   <g id="patch_135">
    <path d="M 450.163636 320.4 
L 452.7 320.4 
L 452.7 191.924272 
L 450.163636 191.924272 
z
" clip-path="url(#pd09fef53b2)" style="fill: #0000ff; stroke: #000000; stroke-linejoin: miter"/>
   </g>
   <g id="patch_136">
    <path d="M 452.7 320.4 
L 455.236364 320.4 
L 455.236364 154.438835 
L 452.7 154.438835 
z
" clip-path="url(#pd09fef53b2)" style="fill: #0000ff; stroke: #000000; stroke-linejoin: miter"/>
   </g>
   <g id="patch_137">
    <path d="M 455.236364 320.4 
L 457.772727 320.4 
L 457.772727 87.798058 
L 455.236364 87.798058 
z
" clip-path="url(#pd09fef53b2)" style="fill: #0000ff; stroke: #000000; stroke-linejoin: miter"/>
   </g>
   <g id="patch_138">
    <path d="M 457.772727 320.4 
L 460.309091 320.4 
L 460.309091 56.4 
L 457.772727 56.4 
z
" clip-path="url(#pd09fef53b2)" style="fill: #0000ff; stroke: #000000; stroke-linejoin: miter"/>
   </g>
   <g id="patch_139">
    <path d="M 460.309091 320.4 
L 462.845455 320.4 
L 462.845455 77.545631 
L 460.309091 77.545631 
z
" clip-path="url(#pd09fef53b2)" style="fill: #0000ff; stroke: #000000; stroke-linejoin: miter"/>
   </g>
   <g id="patch_140">
    <path d="M 462.845455 320.4 
L 465.381818 320.4 
L 465.381818 126.565049 
L 462.845455 126.565049 
z
" clip-path="url(#pd09fef53b2)" style="fill: #0000ff; stroke: #000000; stroke-linejoin: miter"/>
   </g>
   <g id="patch_141">
    <path d="M 465.381818 320.4 
L 467.918182 320.4 
L 467.918182 161.807767 
L 465.381818 161.807767 
z
" clip-path="url(#pd09fef53b2)" style="fill: #0000ff; stroke: #000000; stroke-linejoin: miter"/>
   </g>
   <g id="patch_142">
    <path d="M 467.918182 320.4 
L 470.454545 320.4 
L 470.454545 190.32233 
L 467.918182 190.32233 
z
" clip-path="url(#pd09fef53b2)" style="fill: #0000ff; stroke: #000000; stroke-linejoin: miter"/>
   </g>
   <g id="patch_143">
    <path d="M 470.454545 320.4 
L 472.990909 320.4 
L 472.990909 201.535922 
L 470.454545 201.535922 
z
" clip-path="url(#pd09fef53b2)" style="fill: #0000ff; stroke: #000000; stroke-linejoin: miter"/>
   </g>
   <g id="patch_144">
    <path d="M 472.990909 320.4 
L 475.527273 320.4 
L 475.527273 225.24466 
L 472.990909 225.24466 
z
" clip-path="url(#pd09fef53b2)" style="fill: #0000ff; stroke: #000000; stroke-linejoin: miter"/>
   </g>
   <g id="patch_145">
    <path d="M 475.527273 320.4 
L 478.063636 320.4 
L 478.063636 227.16699 
L 475.527273 227.16699 
z
" clip-path="url(#pd09fef53b2)" style="fill: #0000ff; stroke: #000000; stroke-linejoin: miter"/>
   </g>
   <g id="patch_146">
    <path d="M 478.063636 320.4 
L 480.6 320.4 
L 480.6 247.671845 
L 478.063636 247.671845 
z
" clip-path="url(#pd09fef53b2)" style="fill: #0000ff; stroke: #000000; stroke-linejoin: miter"/>
   </g>
   <g id="patch_147">
    <path d="M 480.6 320.4 
L 483.136364 320.4 
L 483.136364 260.807767 
L 480.6 260.807767 
z
" clip-path="url(#pd09fef53b2)" style="fill: #0000ff; stroke: #000000; stroke-linejoin: miter"/>
   </g>
   <g id="patch_148">
    <path d="M 483.136364 320.4 
L 485.672727 320.4 
L 485.672727 260.16699 
L 483.136364 260.16699 
z
" clip-path="url(#pd09fef53b2)" style="fill: #0000ff; stroke: #000000; stroke-linejoin: miter"/>
   </g>
   <g id="patch_149">
    <path d="M 485.672727 320.4 
L 488.209091 320.4 
L 488.209091 267.535922 
L 485.672727 267.535922 
z
" clip-path="url(#pd09fef53b2)" style="fill: #0000ff; stroke: #000000; stroke-linejoin: miter"/>
   </g>
   <g id="patch_150">
    <path d="M 488.209091 320.4 
L 490.745455 320.4 
L 490.745455 268.497087 
L 488.209091 268.497087 
z
" clip-path="url(#pd09fef53b2)" style="fill: #0000ff; stroke: #000000; stroke-linejoin: miter"/>
   </g>
   <g id="patch_151">
    <path d="M 490.745455 320.4 
L 493.281818 320.4 
L 493.281818 280.671845 
L 490.745455 280.671845 
z
" clip-path="url(#pd09fef53b2)" style="fill: #0000ff; stroke: #000000; stroke-linejoin: miter"/>
   </g>
   <g id="patch_152">
    <path d="M 493.281818 320.4 
L 495.818182 320.4 
L 495.818182 282.594175 
L 493.281818 282.594175 
z
" clip-path="url(#pd09fef53b2)" style="fill: #0000ff; stroke: #000000; stroke-linejoin: miter"/>
   </g>
   <g id="patch_153">
    <path d="M 495.818182 320.4 
L 498.354545 320.4 
L 498.354545 289.963107 
L 495.818182 289.963107 
z
" clip-path="url(#pd09fef53b2)" style="fill: #0000ff; stroke: #000000; stroke-linejoin: miter"/>
   </g>
   <g id="patch_154">
    <path d="M 498.354545 320.4 
L 500.890909 320.4 
L 500.890909 293.807767 
L 498.354545 293.807767 
z
" clip-path="url(#pd09fef53b2)" style="fill: #0000ff; stroke: #000000; stroke-linejoin: miter"/>
   </g>
   <g id="patch_155">
    <path d="M 500.890909 320.4 
L 503.427273 320.4 
L 503.427273 294.768932 
L 500.890909 294.768932 
z
" clip-path="url(#pd09fef53b2)" style="fill: #0000ff; stroke: #000000; stroke-linejoin: miter"/>
   </g>
   <g id="patch_156">
    <path d="M 503.427273 320.4 
L 505.963636 320.4 
L 505.963636 298.293204 
L 503.427273 298.293204 
z
" clip-path="url(#pd09fef53b2)" style="fill: #0000ff; stroke: #000000; stroke-linejoin: miter"/>
   </g>
   <g id="patch_157">
    <path d="M 505.963636 320.4 
L 508.5 320.4 
L 508.5 304.060194 
L 505.963636 304.060194 
z
" clip-path="url(#pd09fef53b2)" style="fill: #0000ff; stroke: #000000; stroke-linejoin: miter"/>
   </g>
   <g id="patch_158">
    <path d="M 508.5 320.4 
L 511.036364 320.4 
L 511.036364 306.623301 
L 508.5 306.623301 
z
" clip-path="url(#pd09fef53b2)" style="fill: #0000ff; stroke: #000000; stroke-linejoin: miter"/>
   </g>
   <g id="patch_159">
    <path d="M 511.036364 320.4 
L 513.572727 320.4 
L 513.572727 312.390291 
L 511.036364 312.390291 
z
" clip-path="url(#pd09fef53b2)" style="fill: #0000ff; stroke: #000000; stroke-linejoin: miter"/>
   </g>
   <g id="patch_160">
    <path d="M 513.572727 320.4 
L 516.109091 320.4 
L 516.109091 310.467961 
L 513.572727 310.467961 
z
" clip-path="url(#pd09fef53b2)" style="fill: #0000ff; stroke: #000000; stroke-linejoin: miter"/>
   </g>
   <g id="patch_161">
    <path d="M 516.109091 320.4 
L 518.645455 320.4 
L 518.645455 308.225243 
L 516.109091 308.225243 
z
" clip-path="url(#pd09fef53b2)" style="fill: #0000ff; stroke: #000000; stroke-linejoin: miter"/>
   </g>
   <g id="patch_162">
    <path d="M 518.645455 320.4 
L 521.181818 320.4 
L 521.181818 313.351456 
L 518.645455 313.351456 
z
" clip-path="url(#pd09fef53b2)" style="fill: #0000ff; stroke: #000000; stroke-linejoin: miter"/>
   </g>
   <g id="patch_163">
    <path d="M 521.181818 320.4 
L 523.718182 320.4 
L 523.718182 312.71068 
L 521.181818 312.71068 
z
" clip-path="url(#pd09fef53b2)" style="fill: #0000ff; stroke: #000000; stroke-linejoin: miter"/>
   </g>
   <g id="patch_164">
    <path d="M 523.718182 320.4 
L 526.254545 320.4 
L 526.254545 314.953398 
L 523.718182 314.953398 
z
" clip-path="url(#pd09fef53b2)" style="fill: #0000ff; stroke: #000000; stroke-linejoin: miter"/>
   </g>
   <g id="patch_165">
    <path d="M 526.254545 320.4 
L 528.790909 320.4 
L 528.790909 317.196117 
L 526.254545 317.196117 
z
" clip-path="url(#pd09fef53b2)" style="fill: #0000ff; stroke: #000000; stroke-linejoin: miter"/>
   </g>
   <g id="patch_166">
    <path d="M 528.790909 320.4 
L 531.327273 320.4 
L 531.327273 316.234951 
L 528.790909 316.234951 
z
" clip-path="url(#pd09fef53b2)" style="fill: #0000ff; stroke: #000000; stroke-linejoin: miter"/>
   </g>
   <g id="patch_167">
    <path d="M 531.327273 320.4 
L 533.863636 320.4 
L 533.863636 316.55534 
L 531.327273 316.55534 
z
" clip-path="url(#pd09fef53b2)" style="fill: #0000ff; stroke: #000000; stroke-linejoin: miter"/>
   </g>
   <g id="patch_168">
    <path d="M 533.863636 320.4 
L 536.4 320.4 
L 536.4 318.157282 
L 533.863636 318.157282 
z
" clip-path="url(#pd09fef53b2)" style="fill: #0000ff; stroke: #000000; stroke-linejoin: miter"/>
   </g>
   <g id="patch_169">
    <path d="M 536.4 320.4 
L 538.936364 320.4 
L 538.936364 316.55534 
L 536.4 316.55534 
z
" clip-path="url(#pd09fef53b2)" style="fill: #0000ff; stroke: #000000; stroke-linejoin: miter"/>
   </g>
   <g id="patch_170">
    <path d="M 538.936364 320.4 
L 541.472727 320.4 
L 541.472727 316.55534 
L 538.936364 316.55534 
z
" clip-path="url(#pd09fef53b2)" style="fill: #0000ff; stroke: #000000; stroke-linejoin: miter"/>
   </g>
   <g id="patch_171">
    <path d="M 541.472727 320.4 
L 544.009091 320.4 
L 544.009091 317.516505 
L 541.472727 317.516505 
z
" clip-path="url(#pd09fef53b2)" style="fill: #0000ff; stroke: #000000; stroke-linejoin: miter"/>
   </g>
   <g id="patch_172">
    <path d="M 544.009091 320.4 
L 546.545455 320.4 
L 546.545455 318.47767 
L 544.009091 318.47767 
z
" clip-path="url(#pd09fef53b2)" style="fill: #0000ff; stroke: #000000; stroke-linejoin: miter"/>
   </g>
   <g id="patch_173">
    <path d="M 546.545455 320.4 
L 549.081818 320.4 
L 549.081818 320.4 
L 546.545455 320.4 
z
" clip-path="url(#pd09fef53b2)" style="fill: #0000ff; stroke: #000000; stroke-linejoin: miter"/>
   </g>
   <g id="patch_174">
    <path d="M 549.081818 320.4 
L 551.618182 320.4 
L 551.618182 317.516505 
L 549.081818 317.516505 
z
" clip-path="url(#pd09fef53b2)" style="fill: #0000ff; stroke: #000000; stroke-linejoin: miter"/>
   </g>
   <g id="patch_175">
    <path d="M 551.618182 320.4 
L 554.154545 320.4 
L 554.154545 319.438835 
L 551.618182 319.438835 
z
" clip-path="url(#pd09fef53b2)" style="fill: #0000ff; stroke: #000000; stroke-linejoin: miter"/>
   </g>
   <g id="patch_176">
    <path d="M 554.154545 320.4 
L 556.690909 320.4 
L 556.690909 319.118447 
L 554.154545 319.118447 
z
" clip-path="url(#pd09fef53b2)" style="fill: #0000ff; stroke: #000000; stroke-linejoin: miter"/>
   </g>
   <g id="patch_177">
    <path d="M 556.690909 320.4 
L 559.227273 320.4 
L 559.227273 319.759223 
L 556.690909 319.759223 
z
" clip-path="url(#pd09fef53b2)" style="fill: #0000ff; stroke: #000000; stroke-linejoin: miter"/>
   </g>
   <g id="patch_178">
    <path d="M 559.227273 320.4 
L 561.763636 320.4 
L 561.763636 319.438835 
L 559.227273 319.438835 
z
" clip-path="url(#pd09fef53b2)" style="fill: #0000ff; stroke: #000000; stroke-linejoin: miter"/>
   </g>
   <g id="patch_179">
    <path d="M 561.763636 320.4 
L 564.3 320.4 
L 564.3 319.759223 
L 561.763636 319.759223 
z
" clip-path="url(#pd09fef53b2)" style="fill: #0000ff; stroke: #000000; stroke-linejoin: miter"/>
   </g>
   <g id="patch_180">
    <path d="M 564.3 320.4 
L 566.836364 320.4 
L 566.836364 319.438835 
L 564.3 319.438835 
z
" clip-path="url(#pd09fef53b2)" style="fill: #0000ff; stroke: #000000; stroke-linejoin: miter"/>
   </g>
   <g id="patch_181">
    <path d="M 566.836364 320.4 
L 569.372727 320.4 
L 569.372727 319.438835 
L 566.836364 319.438835 
z
" clip-path="url(#pd09fef53b2)" style="fill: #0000ff; stroke: #000000; stroke-linejoin: miter"/>
   </g>
   <g id="patch_182">
    <path d="M 569.372727 320.4 
L 571.909091 320.4 
L 571.909091 319.759223 
L 569.372727 319.759223 
z
" clip-path="url(#pd09fef53b2)" style="fill: #0000ff; stroke: #000000; stroke-linejoin: miter"/>
   </g>
   <g id="patch_183">
    <path d="M 571.909091 320.4 
L 574.445455 320.4 
L 574.445455 320.079612 
L 571.909091 320.079612 
z
" clip-path="url(#pd09fef53b2)" style="fill: #0000ff; stroke: #000000; stroke-linejoin: miter"/>
   </g>
   <g id="patch_184">
    <path d="M 574.445455 320.4 
L 576.981818 320.4 
L 576.981818 320.079612 
L 574.445455 320.079612 
z
" clip-path="url(#pd09fef53b2)" style="fill: #0000ff; stroke: #000000; stroke-linejoin: miter"/>
   </g>
   <g id="patch_185">
    <path d="M 576.981818 320.4 
L 579.518182 320.4 
L 579.518182 319.759223 
L 576.981818 319.759223 
z
" clip-path="url(#pd09fef53b2)" style="fill: #0000ff; stroke: #000000; stroke-linejoin: miter"/>
   </g>
   <g id="patch_186">
    <path d="M 579.518182 320.4 
L 582.054545 320.4 
L 582.054545 319.438835 
L 579.518182 319.438835 
z
" clip-path="url(#pd09fef53b2)" style="fill: #0000ff; stroke: #000000; stroke-linejoin: miter"/>
   </g>
   <g id="patch_187">
    <path d="M 582.054545 320.4 
L 584.590909 320.4 
L 584.590909 320.079612 
L 582.054545 320.079612 
z
" clip-path="url(#pd09fef53b2)" style="fill: #0000ff; stroke: #000000; stroke-linejoin: miter"/>
   </g>
   <g id="patch_188">
    <path d="M 584.590909 320.4 
L 587.127273 320.4 
L 587.127273 320.079612 
L 584.590909 320.079612 
z
" clip-path="url(#pd09fef53b2)" style="fill: #0000ff; stroke: #000000; stroke-linejoin: miter"/>
   </g>
   <g id="patch_189">
    <path d="M 587.127273 320.4 
L 589.663636 320.4 
L 589.663636 320.4 
L 587.127273 320.4 
z
" clip-path="url(#pd09fef53b2)" style="fill: #0000ff; stroke: #000000; stroke-linejoin: miter"/>
   </g>
   <g id="patch_190">
    <path d="M 589.663636 320.4 
L 592.2 320.4 
L 592.2 320.4 
L 589.663636 320.4 
z
" clip-path="url(#pd09fef53b2)" style="fill: #0000ff; stroke: #000000; stroke-linejoin: miter"/>
   </g>
   <g id="patch_191">
    <path d="M 592.2 320.4 
L 594.736364 320.4 
L 594.736364 320.079612 
L 592.2 320.079612 
z
" clip-path="url(#pd09fef53b2)" style="fill: #0000ff; stroke: #000000; stroke-linejoin: miter"/>
   </g>
   <g id="patch_192">
    <path d="M 594.736364 320.4 
L 597.272727 320.4 
L 597.272727 320.079612 
L 594.736364 320.079612 
z
" clip-path="url(#pd09fef53b2)" style="fill: #0000ff; stroke: #000000; stroke-linejoin: miter"/>
   </g>
   <g id="patch_193">
    <path d="M 597.272727 320.4 
L 599.809091 320.4 
L 599.809091 320.079612 
L 597.272727 320.079612 
z
" clip-path="url(#pd09fef53b2)" style="fill: #0000ff; stroke: #000000; stroke-linejoin: miter"/>
   </g>
   <g id="patch_194">
    <path d="M 599.809091 320.4 
L 602.345455 320.4 
L 602.345455 320.079612 
L 599.809091 320.079612 
z
" clip-path="url(#pd09fef53b2)" style="fill: #0000ff; stroke: #000000; stroke-linejoin: miter"/>
   </g>
   <g id="patch_195">
    <path d="M 602.345455 320.4 
L 604.881818 320.4 
L 604.881818 320.079612 
L 602.345455 320.079612 
z
" clip-path="url(#pd09fef53b2)" style="fill: #0000ff; stroke: #000000; stroke-linejoin: miter"/>
   </g>
   <g id="patch_196">
    <path d="M 604.881818 320.4 
L 607.418182 320.4 
L 607.418182 320.079612 
L 604.881818 320.079612 
z
" clip-path="url(#pd09fef53b2)" style="fill: #0000ff; stroke: #000000; stroke-linejoin: miter"/>
   </g>
   <g id="patch_197">
    <path d="M 607.418182 320.4 
L 609.954545 320.4 
L 609.954545 320.079612 
L 607.418182 320.079612 
z
" clip-path="url(#pd09fef53b2)" style="fill: #0000ff; stroke: #000000; stroke-linejoin: miter"/>
   </g>
   <g id="patch_198">
    <path d="M 609.954545 320.4 
L 612.490909 320.4 
L 612.490909 320.4 
L 609.954545 320.4 
z
" clip-path="url(#pd09fef53b2)" style="fill: #0000ff; stroke: #000000; stroke-linejoin: miter"/>
   </g>
   <g id="patch_199">
    <path d="M 612.490909 320.4 
L 615.027273 320.4 
L 615.027273 320.4 
L 612.490909 320.4 
z
" clip-path="url(#pd09fef53b2)" style="fill: #0000ff; stroke: #000000; stroke-linejoin: miter"/>
   </g>
   <g id="patch_200">
    <path d="M 615.027273 320.4 
L 617.563636 320.4 
L 617.563636 320.079612 
L 615.027273 320.079612 
z
" clip-path="url(#pd09fef53b2)" style="fill: #0000ff; stroke: #000000; stroke-linejoin: miter"/>
   </g>
   <g id="patch_201">
    <path d="M 617.563636 320.4 
L 620.1 320.4 
L 620.1 320.079612 
L 617.563636 320.079612 
z
" clip-path="url(#pd09fef53b2)" style="fill: #0000ff; stroke: #000000; stroke-linejoin: miter"/>
   </g>
   <g id="patch_202">
    <path d="M 620.1 320.4 
L 622.636364 320.4 
L 622.636364 319.759223 
L 620.1 319.759223 
z
" clip-path="url(#pd09fef53b2)" style="fill: #0000ff; stroke: #000000; stroke-linejoin: miter"/>
   </g>
   <g id="matplotlib.axis_1">
    <g id="xtick_1">
     <g id="line2d_1">
      <defs>
       <path id="m42a96cc703" d="M 0 0 
L 0 3.5 
" style="stroke: #000000; stroke-width: 0.8"/>
      </defs>
      <g>
       <use xlink:href="#m42a96cc703" x="111.712799" y="320.4" style="stroke: #000000; stroke-width: 0.8"/>
      </g>
     </g>
     <g id="text_1">
      <!-- −5000 -->
      <g transform="translate(94.797955 334.998438) scale(0.1 -0.1)">
       <defs>
        <path id="DejaVuSans-2212" d="M 678 2272 
L 4684 2272 
L 4684 1741 
L 678 1741 
L 678 2272 
z
" transform="scale(0.015625)"/>
        <path id="DejaVuSans-35" d="M 691 4666 
L 3169 4666 
L 3169 4134 
L 1269 4134 
L 1269 2991 
Q 1406 3038 1543 3061 
Q 1681 3084 1819 3084 
Q 2600 3084 3056 2656 
Q 3513 2228 3513 1497 
Q 3513 744 3044 326 
Q 2575 -91 1722 -91 
Q 1428 -91 1123 -41 
Q 819 9 494 109 
L 494 744 
Q 775 591 1075 516 
Q 1375 441 1709 441 
Q 2250 441 2565 725 
Q 2881 1009 2881 1497 
Q 2881 1984 2565 2268 
Q 2250 2553 1709 2553 
Q 1456 2553 1204 2497 
Q 953 2441 691 2322 
L 691 4666 
z
" transform="scale(0.015625)"/>
        <path id="DejaVuSans-30" d="M 2034 4250 
Q 1547 4250 1301 3770 
Q 1056 3291 1056 2328 
Q 1056 1369 1301 889 
Q 1547 409 2034 409 
Q 2525 409 2770 889 
Q 3016 1369 3016 2328 
Q 3016 3291 2770 3770 
Q 2525 4250 2034 4250 
z
M 2034 4750 
Q 2819 4750 3233 4129 
Q 3647 3509 3647 2328 
Q 3647 1150 3233 529 
Q 2819 -91 2034 -91 
Q 1250 -91 836 529 
Q 422 1150 422 2328 
Q 422 3509 836 4129 
Q 1250 4750 2034 4750 
z
" transform="scale(0.015625)"/>
       </defs>
       <use xlink:href="#DejaVuSans-2212"/>
       <use xlink:href="#DejaVuSans-35" transform="translate(83.789062 0)"/>
       <use xlink:href="#DejaVuSans-30" transform="translate(147.412109 0)"/>
       <use xlink:href="#DejaVuSans-30" transform="translate(211.035156 0)"/>
       <use xlink:href="#DejaVuSans-30" transform="translate(274.658203 0)"/>
      </g>
     </g>
    </g>
    <g id="xtick_2">
     <g id="line2d_2">
      <g>
       <use xlink:href="#m42a96cc703" x="181.689262" y="320.4" style="stroke: #000000; stroke-width: 0.8"/>
      </g>
     </g>
     <g id="text_2">
      <!-- −4000 -->
      <g transform="translate(164.774419 334.998438) scale(0.1 -0.1)">
       <defs>
        <path id="DejaVuSans-34" d="M 2419 4116 
L 825 1625 
L 2419 1625 
L 2419 4116 
z
M 2253 4666 
L 3047 4666 
L 3047 1625 
L 3713 1625 
L 3713 1100 
L 3047 1100 
L 3047 0 
L 2419 0 
L 2419 1100 
L 313 1100 
L 313 1709 
L 2253 4666 
z
" transform="scale(0.015625)"/>
       </defs>
       <use xlink:href="#DejaVuSans-2212"/>
       <use xlink:href="#DejaVuSans-34" transform="translate(83.789062 0)"/>
       <use xlink:href="#DejaVuSans-30" transform="translate(147.412109 0)"/>
       <use xlink:href="#DejaVuSans-30" transform="translate(211.035156 0)"/>
       <use xlink:href="#DejaVuSans-30" transform="translate(274.658203 0)"/>
      </g>
     </g>
    </g>
    <g id="xtick_3">
     <g id="line2d_3">
      <g>
       <use xlink:href="#m42a96cc703" x="251.665726" y="320.4" style="stroke: #000000; stroke-width: 0.8"/>
      </g>
     </g>
     <g id="text_3">
      <!-- −3000 -->
      <g transform="translate(234.750882 334.998438) scale(0.1 -0.1)">
       <defs>
        <path id="DejaVuSans-33" d="M 2597 2516 
Q 3050 2419 3304 2112 
Q 3559 1806 3559 1356 
Q 3559 666 3084 287 
Q 2609 -91 1734 -91 
Q 1441 -91 1130 -33 
Q 819 25 488 141 
L 488 750 
Q 750 597 1062 519 
Q 1375 441 1716 441 
Q 2309 441 2620 675 
Q 2931 909 2931 1356 
Q 2931 1769 2642 2001 
Q 2353 2234 1838 2234 
L 1294 2234 
L 1294 2753 
L 1863 2753 
Q 2328 2753 2575 2939 
Q 2822 3125 2822 3475 
Q 2822 3834 2567 4026 
Q 2313 4219 1838 4219 
Q 1578 4219 1281 4162 
Q 984 4106 628 3988 
L 628 4550 
Q 988 4650 1302 4700 
Q 1616 4750 1894 4750 
Q 2613 4750 3031 4423 
Q 3450 4097 3450 3541 
Q 3450 3153 3228 2886 
Q 3006 2619 2597 2516 
z
" transform="scale(0.015625)"/>
       </defs>
       <use xlink:href="#DejaVuSans-2212"/>
       <use xlink:href="#DejaVuSans-33" transform="translate(83.789062 0)"/>
       <use xlink:href="#DejaVuSans-30" transform="translate(147.412109 0)"/>
       <use xlink:href="#DejaVuSans-30" transform="translate(211.035156 0)"/>
       <use xlink:href="#DejaVuSans-30" transform="translate(274.658203 0)"/>
      </g>
     </g>
    </g>
    <g id="xtick_4">
     <g id="line2d_4">
      <g>
       <use xlink:href="#m42a96cc703" x="321.64219" y="320.4" style="stroke: #000000; stroke-width: 0.8"/>
      </g>
     </g>
     <g id="text_4">
      <!-- −2000 -->
      <g transform="translate(304.727346 334.998438) scale(0.1 -0.1)">
       <defs>
        <path id="DejaVuSans-32" d="M 1228 531 
L 3431 531 
L 3431 0 
L 469 0 
L 469 531 
Q 828 903 1448 1529 
Q 2069 2156 2228 2338 
Q 2531 2678 2651 2914 
Q 2772 3150 2772 3378 
Q 2772 3750 2511 3984 
Q 2250 4219 1831 4219 
Q 1534 4219 1204 4116 
Q 875 4013 500 3803 
L 500 4441 
Q 881 4594 1212 4672 
Q 1544 4750 1819 4750 
Q 2544 4750 2975 4387 
Q 3406 4025 3406 3419 
Q 3406 3131 3298 2873 
Q 3191 2616 2906 2266 
Q 2828 2175 2409 1742 
Q 1991 1309 1228 531 
z
" transform="scale(0.015625)"/>
       </defs>
       <use xlink:href="#DejaVuSans-2212"/>
       <use xlink:href="#DejaVuSans-32" transform="translate(83.789062 0)"/>
       <use xlink:href="#DejaVuSans-30" transform="translate(147.412109 0)"/>
       <use xlink:href="#DejaVuSans-30" transform="translate(211.035156 0)"/>
       <use xlink:href="#DejaVuSans-30" transform="translate(274.658203 0)"/>
      </g>
     </g>
    </g>
    <g id="xtick_5">
     <g id="line2d_5">
      <g>
       <use xlink:href="#m42a96cc703" x="391.618653" y="320.4" style="stroke: #000000; stroke-width: 0.8"/>
      </g>
     </g>
     <g id="text_5">
      <!-- −1000 -->
      <g transform="translate(374.70381 334.998438) scale(0.1 -0.1)">
       <defs>
        <path id="DejaVuSans-31" d="M 794 531 
L 1825 531 
L 1825 4091 
L 703 3866 
L 703 4441 
L 1819 4666 
L 2450 4666 
L 2450 531 
L 3481 531 
L 3481 0 
L 794 0 
L 794 531 
z
" transform="scale(0.015625)"/>
       </defs>
       <use xlink:href="#DejaVuSans-2212"/>
       <use xlink:href="#DejaVuSans-31" transform="translate(83.789062 0)"/>
       <use xlink:href="#DejaVuSans-30" transform="translate(147.412109 0)"/>
       <use xlink:href="#DejaVuSans-30" transform="translate(211.035156 0)"/>
       <use xlink:href="#DejaVuSans-30" transform="translate(274.658203 0)"/>
      </g>
     </g>
    </g>
    <g id="xtick_6">
     <g id="line2d_6">
      <g>
       <use xlink:href="#m42a96cc703" x="461.595117" y="320.4" style="stroke: #000000; stroke-width: 0.8"/>
      </g>
     </g>
     <g id="text_6">
      <!-- 0 -->
      <g transform="translate(458.413867 334.998438) scale(0.1 -0.1)">
       <use xlink:href="#DejaVuSans-30"/>
      </g>
     </g>
    </g>
    <g id="xtick_7">
     <g id="line2d_7">
      <g>
       <use xlink:href="#m42a96cc703" x="531.57158" y="320.4" style="stroke: #000000; stroke-width: 0.8"/>
      </g>
     </g>
     <g id="text_7">
      <!-- 1000 -->
      <g transform="translate(518.84658 334.998438) scale(0.1 -0.1)">
       <use xlink:href="#DejaVuSans-31"/>
       <use xlink:href="#DejaVuSans-30" transform="translate(63.623047 0)"/>
       <use xlink:href="#DejaVuSans-30" transform="translate(127.246094 0)"/>
       <use xlink:href="#DejaVuSans-30" transform="translate(190.869141 0)"/>
      </g>
     </g>
    </g>
    <g id="xtick_8">
     <g id="line2d_8">
      <g>
       <use xlink:href="#m42a96cc703" x="601.548044" y="320.4" style="stroke: #000000; stroke-width: 0.8"/>
      </g>
     </g>
     <g id="text_8">
      <!-- 2000 -->
      <g transform="translate(588.823044 334.998438) scale(0.1 -0.1)">
       <use xlink:href="#DejaVuSans-32"/>
       <use xlink:href="#DejaVuSans-30" transform="translate(63.623047 0)"/>
       <use xlink:href="#DejaVuSans-30" transform="translate(127.246094 0)"/>
       <use xlink:href="#DejaVuSans-30" transform="translate(190.869141 0)"/>
      </g>
     </g>
    </g>
    <g id="text_9">
     <!-- Residuals -->
     <g transform="translate(335.791562 351.715937) scale(0.14 -0.14)">
      <defs>
       <path id="DejaVuSans-52" d="M 2841 2188 
Q 3044 2119 3236 1894 
Q 3428 1669 3622 1275 
L 4263 0 
L 3584 0 
L 2988 1197 
Q 2756 1666 2539 1819 
Q 2322 1972 1947 1972 
L 1259 1972 
L 1259 0 
L 628 0 
L 628 4666 
L 2053 4666 
Q 2853 4666 3247 4331 
Q 3641 3997 3641 3322 
Q 3641 2881 3436 2590 
Q 3231 2300 2841 2188 
z
M 1259 4147 
L 1259 2491 
L 2053 2491 
Q 2509 2491 2742 2702 
Q 2975 2913 2975 3322 
Q 2975 3731 2742 3939 
Q 2509 4147 2053 4147 
L 1259 4147 
z
" transform="scale(0.015625)"/>
       <path id="DejaVuSans-65" d="M 3597 1894 
L 3597 1613 
L 953 1613 
Q 991 1019 1311 708 
Q 1631 397 2203 397 
Q 2534 397 2845 478 
Q 3156 559 3463 722 
L 3463 178 
Q 3153 47 2828 -22 
Q 2503 -91 2169 -91 
Q 1331 -91 842 396 
Q 353 884 353 1716 
Q 353 2575 817 3079 
Q 1281 3584 2069 3584 
Q 2775 3584 3186 3129 
Q 3597 2675 3597 1894 
z
M 3022 2063 
Q 3016 2534 2758 2815 
Q 2500 3097 2075 3097 
Q 1594 3097 1305 2825 
Q 1016 2553 972 2059 
L 3022 2063 
z
" transform="scale(0.015625)"/>
       <path id="DejaVuSans-73" d="M 2834 3397 
L 2834 2853 
Q 2591 2978 2328 3040 
Q 2066 3103 1784 3103 
Q 1356 3103 1142 2972 
Q 928 2841 928 2578 
Q 928 2378 1081 2264 
Q 1234 2150 1697 2047 
L 1894 2003 
Q 2506 1872 2764 1633 
Q 3022 1394 3022 966 
Q 3022 478 2636 193 
Q 2250 -91 1575 -91 
Q 1294 -91 989 -36 
Q 684 19 347 128 
L 347 722 
Q 666 556 975 473 
Q 1284 391 1588 391 
Q 1994 391 2212 530 
Q 2431 669 2431 922 
Q 2431 1156 2273 1281 
Q 2116 1406 1581 1522 
L 1381 1569 
Q 847 1681 609 1914 
Q 372 2147 372 2553 
Q 372 3047 722 3315 
Q 1072 3584 1716 3584 
Q 2034 3584 2315 3537 
Q 2597 3491 2834 3397 
z
" transform="scale(0.015625)"/>
       <path id="DejaVuSans-69" d="M 603 3500 
L 1178 3500 
L 1178 0 
L 603 0 
L 603 3500 
z
M 603 4863 
L 1178 4863 
L 1178 4134 
L 603 4134 
L 603 4863 
z
" transform="scale(0.015625)"/>
       <path id="DejaVuSans-64" d="M 2906 2969 
L 2906 4863 
L 3481 4863 
L 3481 0 
L 2906 0 
L 2906 525 
Q 2725 213 2448 61 
Q 2172 -91 1784 -91 
Q 1150 -91 751 415 
Q 353 922 353 1747 
Q 353 2572 751 3078 
Q 1150 3584 1784 3584 
Q 2172 3584 2448 3432 
Q 2725 3281 2906 2969 
z
M 947 1747 
Q 947 1113 1208 752 
Q 1469 391 1925 391 
Q 2381 391 2643 752 
Q 2906 1113 2906 1747 
Q 2906 2381 2643 2742 
Q 2381 3103 1925 3103 
Q 1469 3103 1208 2742 
Q 947 2381 947 1747 
z
" transform="scale(0.015625)"/>
       <path id="DejaVuSans-75" d="M 544 1381 
L 544 3500 
L 1119 3500 
L 1119 1403 
Q 1119 906 1312 657 
Q 1506 409 1894 409 
Q 2359 409 2629 706 
Q 2900 1003 2900 1516 
L 2900 3500 
L 3475 3500 
L 3475 0 
L 2900 0 
L 2900 538 
Q 2691 219 2414 64 
Q 2138 -91 1772 -91 
Q 1169 -91 856 284 
Q 544 659 544 1381 
z
M 1991 3584 
L 1991 3584 
z
" transform="scale(0.015625)"/>
       <path id="DejaVuSans-61" d="M 2194 1759 
Q 1497 1759 1228 1600 
Q 959 1441 959 1056 
Q 959 750 1161 570 
Q 1363 391 1709 391 
Q 2188 391 2477 730 
Q 2766 1069 2766 1631 
L 2766 1759 
L 2194 1759 
z
M 3341 1997 
L 3341 0 
L 2766 0 
L 2766 531 
Q 2569 213 2275 61 
Q 1981 -91 1556 -91 
Q 1019 -91 701 211 
Q 384 513 384 1019 
Q 384 1609 779 1909 
Q 1175 2209 1959 2209 
L 2766 2209 
L 2766 2266 
Q 2766 2663 2505 2880 
Q 2244 3097 1772 3097 
Q 1472 3097 1187 3025 
Q 903 2953 641 2809 
L 641 3341 
Q 956 3463 1253 3523 
Q 1550 3584 1831 3584 
Q 2591 3584 2966 3190 
Q 3341 2797 3341 1997 
z
" transform="scale(0.015625)"/>
       <path id="DejaVuSans-6c" d="M 603 4863 
L 1178 4863 
L 1178 0 
L 603 0 
L 603 4863 
z
" transform="scale(0.015625)"/>
      </defs>
      <use xlink:href="#DejaVuSans-52"/>
      <use xlink:href="#DejaVuSans-65" transform="translate(64.982422 0)"/>
      <use xlink:href="#DejaVuSans-73" transform="translate(126.505859 0)"/>
      <use xlink:href="#DejaVuSans-69" transform="translate(178.605469 0)"/>
      <use xlink:href="#DejaVuSans-64" transform="translate(206.388672 0)"/>
      <use xlink:href="#DejaVuSans-75" transform="translate(269.865234 0)"/>
      <use xlink:href="#DejaVuSans-61" transform="translate(333.244141 0)"/>
      <use xlink:href="#DejaVuSans-6c" transform="translate(394.523438 0)"/>
      <use xlink:href="#DejaVuSans-73" transform="translate(422.306641 0)"/>
     </g>
    </g>
   </g>
   <g id="matplotlib.axis_2">
    <g id="ytick_1">
     <g id="line2d_9">
      <defs>
       <path id="mfc6ded9a52" d="M 0 0 
L -3.5 0 
" style="stroke: #000000; stroke-width: 0.8"/>
      </defs>
      <g>
       <use xlink:href="#mfc6ded9a52" x="90" y="320.4" style="stroke: #000000; stroke-width: 0.8"/>
      </g>
     </g>
     <g id="text_10">
      <!-- 0 -->
      <g transform="translate(76.6375 324.199219) scale(0.1 -0.1)">
       <use xlink:href="#DejaVuSans-30"/>
      </g>
     </g>
    </g>
    <g id="ytick_2">
     <g id="line2d_10">
      <g>
       <use xlink:href="#mfc6ded9a52" x="90" y="288.361165" style="stroke: #000000; stroke-width: 0.8"/>
      </g>
     </g>
     <g id="text_11">
      <!-- 100 -->
      <g transform="translate(63.9125 292.160384) scale(0.1 -0.1)">
       <use xlink:href="#DejaVuSans-31"/>
       <use xlink:href="#DejaVuSans-30" transform="translate(63.623047 0)"/>
       <use xlink:href="#DejaVuSans-30" transform="translate(127.246094 0)"/>
      </g>
     </g>
    </g>
    <g id="ytick_3">
     <g id="line2d_11">
      <g>
       <use xlink:href="#mfc6ded9a52" x="90" y="256.32233" style="stroke: #000000; stroke-width: 0.8"/>
      </g>
     </g>
     <g id="text_12">
      <!-- 200 -->
      <g transform="translate(63.9125 260.121549) scale(0.1 -0.1)">
       <use xlink:href="#DejaVuSans-32"/>
       <use xlink:href="#DejaVuSans-30" transform="translate(63.623047 0)"/>
       <use xlink:href="#DejaVuSans-30" transform="translate(127.246094 0)"/>
      </g>
     </g>
    </g>
    <g id="ytick_4">
     <g id="line2d_12">
      <g>
       <use xlink:href="#mfc6ded9a52" x="90" y="224.283495" style="stroke: #000000; stroke-width: 0.8"/>
      </g>
     </g>
     <g id="text_13">
      <!-- 300 -->
      <g transform="translate(63.9125 228.082714) scale(0.1 -0.1)">
       <use xlink:href="#DejaVuSans-33"/>
       <use xlink:href="#DejaVuSans-30" transform="translate(63.623047 0)"/>
       <use xlink:href="#DejaVuSans-30" transform="translate(127.246094 0)"/>
      </g>
     </g>
    </g>
    <g id="ytick_5">
     <g id="line2d_13">
      <g>
       <use xlink:href="#mfc6ded9a52" x="90" y="192.24466" style="stroke: #000000; stroke-width: 0.8"/>
      </g>
     </g>
     <g id="text_14">
      <!-- 400 -->
      <g transform="translate(63.9125 196.043879) scale(0.1 -0.1)">
       <use xlink:href="#DejaVuSans-34"/>
       <use xlink:href="#DejaVuSans-30" transform="translate(63.623047 0)"/>
       <use xlink:href="#DejaVuSans-30" transform="translate(127.246094 0)"/>
      </g>
     </g>
    </g>
    <g id="ytick_6">
     <g id="line2d_14">
      <g>
       <use xlink:href="#mfc6ded9a52" x="90" y="160.205825" style="stroke: #000000; stroke-width: 0.8"/>
      </g>
     </g>
     <g id="text_15">
      <!-- 500 -->
      <g transform="translate(63.9125 164.005044) scale(0.1 -0.1)">
       <use xlink:href="#DejaVuSans-35"/>
       <use xlink:href="#DejaVuSans-30" transform="translate(63.623047 0)"/>
       <use xlink:href="#DejaVuSans-30" transform="translate(127.246094 0)"/>
      </g>
     </g>
    </g>
    <g id="ytick_7">
     <g id="line2d_15">
      <g>
       <use xlink:href="#mfc6ded9a52" x="90" y="128.16699" style="stroke: #000000; stroke-width: 0.8"/>
      </g>
     </g>
     <g id="text_16">
      <!-- 600 -->
      <g transform="translate(63.9125 131.966209) scale(0.1 -0.1)">
       <defs>
        <path id="DejaVuSans-36" d="M 2113 2584 
Q 1688 2584 1439 2293 
Q 1191 2003 1191 1497 
Q 1191 994 1439 701 
Q 1688 409 2113 409 
Q 2538 409 2786 701 
Q 3034 994 3034 1497 
Q 3034 2003 2786 2293 
Q 2538 2584 2113 2584 
z
M 3366 4563 
L 3366 3988 
Q 3128 4100 2886 4159 
Q 2644 4219 2406 4219 
Q 1781 4219 1451 3797 
Q 1122 3375 1075 2522 
Q 1259 2794 1537 2939 
Q 1816 3084 2150 3084 
Q 2853 3084 3261 2657 
Q 3669 2231 3669 1497 
Q 3669 778 3244 343 
Q 2819 -91 2113 -91 
Q 1303 -91 875 529 
Q 447 1150 447 2328 
Q 447 3434 972 4092 
Q 1497 4750 2381 4750 
Q 2619 4750 2861 4703 
Q 3103 4656 3366 4563 
z
" transform="scale(0.015625)"/>
       </defs>
       <use xlink:href="#DejaVuSans-36"/>
       <use xlink:href="#DejaVuSans-30" transform="translate(63.623047 0)"/>
       <use xlink:href="#DejaVuSans-30" transform="translate(127.246094 0)"/>
      </g>
     </g>
    </g>
    <g id="ytick_8">
     <g id="line2d_16">
      <g>
       <use xlink:href="#mfc6ded9a52" x="90" y="96.128155" style="stroke: #000000; stroke-width: 0.8"/>
      </g>
     </g>
     <g id="text_17">
      <!-- 700 -->
      <g transform="translate(63.9125 99.927374) scale(0.1 -0.1)">
       <defs>
        <path id="DejaVuSans-37" d="M 525 4666 
L 3525 4666 
L 3525 4397 
L 1831 0 
L 1172 0 
L 2766 4134 
L 525 4134 
L 525 4666 
z
" transform="scale(0.015625)"/>
       </defs>
       <use xlink:href="#DejaVuSans-37"/>
       <use xlink:href="#DejaVuSans-30" transform="translate(63.623047 0)"/>
       <use xlink:href="#DejaVuSans-30" transform="translate(127.246094 0)"/>
      </g>
     </g>
    </g>
    <g id="ytick_9">
     <g id="line2d_17">
      <g>
       <use xlink:href="#mfc6ded9a52" x="90" y="64.08932" style="stroke: #000000; stroke-width: 0.8"/>
      </g>
     </g>
     <g id="text_18">
      <!-- 800 -->
      <g transform="translate(63.9125 67.888539) scale(0.1 -0.1)">
       <defs>
        <path id="DejaVuSans-38" d="M 2034 2216 
Q 1584 2216 1326 1975 
Q 1069 1734 1069 1313 
Q 1069 891 1326 650 
Q 1584 409 2034 409 
Q 2484 409 2743 651 
Q 3003 894 3003 1313 
Q 3003 1734 2745 1975 
Q 2488 2216 2034 2216 
z
M 1403 2484 
Q 997 2584 770 2862 
Q 544 3141 544 3541 
Q 544 4100 942 4425 
Q 1341 4750 2034 4750 
Q 2731 4750 3128 4425 
Q 3525 4100 3525 3541 
Q 3525 3141 3298 2862 
Q 3072 2584 2669 2484 
Q 3125 2378 3379 2068 
Q 3634 1759 3634 1313 
Q 3634 634 3220 271 
Q 2806 -91 2034 -91 
Q 1263 -91 848 271 
Q 434 634 434 1313 
Q 434 1759 690 2068 
Q 947 2378 1403 2484 
z
M 1172 3481 
Q 1172 3119 1398 2916 
Q 1625 2713 2034 2713 
Q 2441 2713 2670 2916 
Q 2900 3119 2900 3481 
Q 2900 3844 2670 4047 
Q 2441 4250 2034 4250 
Q 1625 4250 1398 4047 
Q 1172 3844 1172 3481 
z
" transform="scale(0.015625)"/>
       </defs>
       <use xlink:href="#DejaVuSans-38"/>
       <use xlink:href="#DejaVuSans-30" transform="translate(63.623047 0)"/>
       <use xlink:href="#DejaVuSans-30" transform="translate(127.246094 0)"/>
      </g>
     </g>
    </g>
    <g id="text_19">
     <!-- Frequency -->
     <g transform="translate(57.000937 217.961562) rotate(-90) scale(0.14 -0.14)">
      <defs>
       <path id="DejaVuSans-46" d="M 628 4666 
L 3309 4666 
L 3309 4134 
L 1259 4134 
L 1259 2759 
L 3109 2759 
L 3109 2228 
L 1259 2228 
L 1259 0 
L 628 0 
L 628 4666 
z
" transform="scale(0.015625)"/>
       <path id="DejaVuSans-72" d="M 2631 2963 
Q 2534 3019 2420 3045 
Q 2306 3072 2169 3072 
Q 1681 3072 1420 2755 
Q 1159 2438 1159 1844 
L 1159 0 
L 581 0 
L 581 3500 
L 1159 3500 
L 1159 2956 
Q 1341 3275 1631 3429 
Q 1922 3584 2338 3584 
Q 2397 3584 2469 3576 
Q 2541 3569 2628 3553 
L 2631 2963 
z
" transform="scale(0.015625)"/>
       <path id="DejaVuSans-71" d="M 947 1747 
Q 947 1113 1208 752 
Q 1469 391 1925 391 
Q 2381 391 2643 752 
Q 2906 1113 2906 1747 
Q 2906 2381 2643 2742 
Q 2381 3103 1925 3103 
Q 1469 3103 1208 2742 
Q 947 2381 947 1747 
z
M 2906 525 
Q 2725 213 2448 61 
Q 2172 -91 1784 -91 
Q 1150 -91 751 415 
Q 353 922 353 1747 
Q 353 2572 751 3078 
Q 1150 3584 1784 3584 
Q 2172 3584 2448 3432 
Q 2725 3281 2906 2969 
L 2906 3500 
L 3481 3500 
L 3481 -1331 
L 2906 -1331 
L 2906 525 
z
" transform="scale(0.015625)"/>
       <path id="DejaVuSans-6e" d="M 3513 2113 
L 3513 0 
L 2938 0 
L 2938 2094 
Q 2938 2591 2744 2837 
Q 2550 3084 2163 3084 
Q 1697 3084 1428 2787 
Q 1159 2491 1159 1978 
L 1159 0 
L 581 0 
L 581 3500 
L 1159 3500 
L 1159 2956 
Q 1366 3272 1645 3428 
Q 1925 3584 2291 3584 
Q 2894 3584 3203 3211 
Q 3513 2838 3513 2113 
z
" transform="scale(0.015625)"/>
       <path id="DejaVuSans-63" d="M 3122 3366 
L 3122 2828 
Q 2878 2963 2633 3030 
Q 2388 3097 2138 3097 
Q 1578 3097 1268 2742 
Q 959 2388 959 1747 
Q 959 1106 1268 751 
Q 1578 397 2138 397 
Q 2388 397 2633 464 
Q 2878 531 3122 666 
L 3122 134 
Q 2881 22 2623 -34 
Q 2366 -91 2075 -91 
Q 1284 -91 818 406 
Q 353 903 353 1747 
Q 353 2603 823 3093 
Q 1294 3584 2113 3584 
Q 2378 3584 2631 3529 
Q 2884 3475 3122 3366 
z
" transform="scale(0.015625)"/>
       <path id="DejaVuSans-79" d="M 2059 -325 
Q 1816 -950 1584 -1140 
Q 1353 -1331 966 -1331 
L 506 -1331 
L 506 -850 
L 844 -850 
Q 1081 -850 1212 -737 
Q 1344 -625 1503 -206 
L 1606 56 
L 191 3500 
L 800 3500 
L 1894 763 
L 2988 3500 
L 3597 3500 
L 2059 -325 
z
" transform="scale(0.015625)"/>
      </defs>
      <use xlink:href="#DejaVuSans-46"/>
      <use xlink:href="#DejaVuSans-72" transform="translate(50.269531 0)"/>
      <use xlink:href="#DejaVuSans-65" transform="translate(89.132812 0)"/>
      <use xlink:href="#DejaVuSans-71" transform="translate(150.65625 0)"/>
      <use xlink:href="#DejaVuSans-75" transform="translate(214.132812 0)"/>
      <use xlink:href="#DejaVuSans-65" transform="translate(277.511719 0)"/>
      <use xlink:href="#DejaVuSans-6e" transform="translate(339.035156 0)"/>
      <use xlink:href="#DejaVuSans-63" transform="translate(402.414062 0)"/>
      <use xlink:href="#DejaVuSans-79" transform="translate(457.394531 0)"/>
     </g>
    </g>
   </g>
   <g id="patch_203">
    <path d="M 90 320.4 
L 90 43.2 
" style="fill: none; stroke: #000000; stroke-width: 0.8; stroke-linejoin: miter; stroke-linecap: square"/>
   </g>
   <g id="patch_204">
    <path d="M 648 320.4 
L 648 43.2 
" style="fill: none; stroke: #000000; stroke-width: 0.8; stroke-linejoin: miter; stroke-linecap: square"/>
   </g>
   <g id="patch_205">
    <path d="M 90 320.4 
L 648 320.4 
" style="fill: none; stroke: #000000; stroke-width: 0.8; stroke-linejoin: miter; stroke-linecap: square"/>
   </g>
   <g id="patch_206">
    <path d="M 90 43.2 
L 648 43.2 
" style="fill: none; stroke: #000000; stroke-width: 0.8; stroke-linejoin: miter; stroke-linecap: square"/>
   </g>
   <g id="text_20">
    <!-- Distribution of Residuals -->
    <g transform="translate(259.403906 37.2) scale(0.18 -0.18)">
     <defs>
      <path id="DejaVuSans-44" d="M 1259 4147 
L 1259 519 
L 2022 519 
Q 2988 519 3436 956 
Q 3884 1394 3884 2338 
Q 3884 3275 3436 3711 
Q 2988 4147 2022 4147 
L 1259 4147 
z
M 628 4666 
L 1925 4666 
Q 3281 4666 3915 4102 
Q 4550 3538 4550 2338 
Q 4550 1131 3912 565 
Q 3275 0 1925 0 
L 628 0 
L 628 4666 
z
" transform="scale(0.015625)"/>
      <path id="DejaVuSans-74" d="M 1172 4494 
L 1172 3500 
L 2356 3500 
L 2356 3053 
L 1172 3053 
L 1172 1153 
Q 1172 725 1289 603 
Q 1406 481 1766 481 
L 2356 481 
L 2356 0 
L 1766 0 
Q 1100 0 847 248 
Q 594 497 594 1153 
L 594 3053 
L 172 3053 
L 172 3500 
L 594 3500 
L 594 4494 
L 1172 4494 
z
" transform="scale(0.015625)"/>
      <path id="DejaVuSans-62" d="M 3116 1747 
Q 3116 2381 2855 2742 
Q 2594 3103 2138 3103 
Q 1681 3103 1420 2742 
Q 1159 2381 1159 1747 
Q 1159 1113 1420 752 
Q 1681 391 2138 391 
Q 2594 391 2855 752 
Q 3116 1113 3116 1747 
z
M 1159 2969 
Q 1341 3281 1617 3432 
Q 1894 3584 2278 3584 
Q 2916 3584 3314 3078 
Q 3713 2572 3713 1747 
Q 3713 922 3314 415 
Q 2916 -91 2278 -91 
Q 1894 -91 1617 61 
Q 1341 213 1159 525 
L 1159 0 
L 581 0 
L 581 4863 
L 1159 4863 
L 1159 2969 
z
" transform="scale(0.015625)"/>
      <path id="DejaVuSans-6f" d="M 1959 3097 
Q 1497 3097 1228 2736 
Q 959 2375 959 1747 
Q 959 1119 1226 758 
Q 1494 397 1959 397 
Q 2419 397 2687 759 
Q 2956 1122 2956 1747 
Q 2956 2369 2687 2733 
Q 2419 3097 1959 3097 
z
M 1959 3584 
Q 2709 3584 3137 3096 
Q 3566 2609 3566 1747 
Q 3566 888 3137 398 
Q 2709 -91 1959 -91 
Q 1206 -91 779 398 
Q 353 888 353 1747 
Q 353 2609 779 3096 
Q 1206 3584 1959 3584 
z
" transform="scale(0.015625)"/>
      <path id="DejaVuSans-20" transform="scale(0.015625)"/>
      <path id="DejaVuSans-66" d="M 2375 4863 
L 2375 4384 
L 1825 4384 
Q 1516 4384 1395 4259 
Q 1275 4134 1275 3809 
L 1275 3500 
L 2222 3500 
L 2222 3053 
L 1275 3053 
L 1275 0 
L 697 0 
L 697 3053 
L 147 3053 
L 147 3500 
L 697 3500 
L 697 3744 
Q 697 4328 969 4595 
Q 1241 4863 1831 4863 
L 2375 4863 
z
" transform="scale(0.015625)"/>
     </defs>
     <use xlink:href="#DejaVuSans-44"/>
     <use xlink:href="#DejaVuSans-69" transform="translate(77.001953 0)"/>
     <use xlink:href="#DejaVuSans-73" transform="translate(104.785156 0)"/>
     <use xlink:href="#DejaVuSans-74" transform="translate(156.884766 0)"/>
     <use xlink:href="#DejaVuSans-72" transform="translate(196.09375 0)"/>
     <use xlink:href="#DejaVuSans-69" transform="translate(237.207031 0)"/>
     <use xlink:href="#DejaVuSans-62" transform="translate(264.990234 0)"/>
     <use xlink:href="#DejaVuSans-75" transform="translate(328.466797 0)"/>
     <use xlink:href="#DejaVuSans-74" transform="translate(391.845703 0)"/>
     <use xlink:href="#DejaVuSans-69" transform="translate(431.054688 0)"/>
     <use xlink:href="#DejaVuSans-6f" transform="translate(458.837891 0)"/>
     <use xlink:href="#DejaVuSans-6e" transform="translate(520.019531 0)"/>
     <use xlink:href="#DejaVuSans-20" transform="translate(583.398438 0)"/>
     <use xlink:href="#DejaVuSans-6f" transform="translate(615.185547 0)"/>
     <use xlink:href="#DejaVuSans-66" transform="translate(676.367188 0)"/>
     <use xlink:href="#DejaVuSans-20" transform="translate(711.572266 0)"/>
     <use xlink:href="#DejaVuSans-52" transform="translate(743.359375 0)"/>
     <use xlink:href="#DejaVuSans-65" transform="translate(808.341797 0)"/>
     <use xlink:href="#DejaVuSans-73" transform="translate(869.865234 0)"/>
     <use xlink:href="#DejaVuSans-69" transform="translate(921.964844 0)"/>
     <use xlink:href="#DejaVuSans-64" transform="translate(949.748047 0)"/>
     <use xlink:href="#DejaVuSans-75" transform="translate(1013.224609 0)"/>
     <use xlink:href="#DejaVuSans-61" transform="translate(1076.603516 0)"/>
     <use xlink:href="#DejaVuSans-6c" transform="translate(1137.882812 0)"/>
     <use xlink:href="#DejaVuSans-73" transform="translate(1165.666016 0)"/>
    </g>
   </g>
  </g>
 </g>
 <defs>
  <clipPath id="pd09fef53b2">
   <rect x="90" y="43.2" width="558" height="277.2"/>
  </clipPath>
 </defs>
</svg>
